<svg width="23" height="26" viewBox="0 0 23 26" xmlns="http://www.w3.org/2000/svg"><title>close right</title><defs><filter x="-50%" y="-50%" width="200%" height="200%" filterUnits="objectBoundingBox" id="a"><feOffset dy="20" in="SourceAlpha" result="shadowOffsetOuter1"/><feGaussianBlur stdDeviation="20" in="shadowOffsetOuter1" result="shadowBlurOuter1"/><feColorMatrix values="0 0 0 0 0 0 0 0 0 0 0 0 0 0 0 0 0 0 0.5 0" in="shadowBlurOuter1" result="shadowMatrixOuter1"/><feMerge><feMergeNode in="shadowMatrixOuter1"/><feMergeNode in="SourceGraphic"/></feMerge></filter></defs><path d="M2667 33v2.8c0 1.123-1.028 2.2-2.002 2.2h-10.714c-.974 0-1.284-1.077-1.284-2.2V18.2c0-1.123.31-2.2 1.284-2.2h10.714c.974 0 2.002 1.077 2.002 2.2V21l2 1v-3.8c0-2.316-1.994-4.2-4.002-4.2h-10.714c-2.009 0-3.284 1.884-3.284 4.2v17.6c0 2.316 1.275 4.2 3.284 4.2h10.714c2.008 0 4.002-1.884 4.002-4.2V32l-2 1zm-.25-10v3h-7v2h7v3l7-4-7-4z" transform="translate(-2651 -14)" filter="url(#a)" fill="#000" fill-rule="evenodd"/></svg>
