<svg width="23" height="27" viewBox="0 0 23 27" xmlns="http://www.w3.org/2000/svg"><title>close left</title><defs><filter x="-50%" y="-50%" width="200%" height="200%" filterUnits="objectBoundingBox" id="a"><feOffset dy="20" in="SourceAlpha" result="shadowOffsetOuter1"/><feGaussianBlur stdDeviation="20" in="shadowOffsetOuter1" result="shadowBlurOuter1"/><feColorMatrix values="0 0 0 0 0 0 0 0 0 0 0 0 0 0 0 0 0 0 0.5 0" in="shadowBlurOuter1" result="shadowMatrixOuter1"/><feMerge><feMergeNode in="shadowMatrixOuter1"/><feMergeNode in="SourceGraphic"/></feMerge></filter></defs><path d="M33 33v2.8c0 1.123-1.028 2.2-2.002 2.2H20.284C19.31 38 19 36.923 19 35.8V18.2c0-1.123.31-2.2 1.284-2.2h10.714C31.972 16 33 17.077 33 18.2V21l2 1v-3.8c0-2.316-1.994-4.2-4.002-4.2H20.284C18.275 14 17 15.884 17 18.2v17.6c0 2.316 1.275 4.2 3.284 4.2h10.714C33.006 40 35 38.116 35 35.8V32l-2 1zm-.25-10v3h-7v2h7v3l7-4-7-4z" transform="matrix(-1 0 0 1 39.75 -13)" filter="url(#a)" fill="#000" fill-rule="evenodd"/></svg>
