<svg width="24" height="20" viewBox="0 0 24 20" xmlns="http://www.w3.org/2000/svg"><g fill="none" fill-rule="evenodd"><path d="M19 7.12a6.5 6.5 0 1 1-13 0 6.5 6.5 0 0 1 13 0" class="svg-theme-fill" fill="#EF5E69"/><path d="M16.324 5.54l-1.519-1.302-2.948 3.44-1.443-1.444L9 7.648l2.97 2.971 4.354-5.079z" fill="#FFF"/><path d="M7.324 14.92L5.805 13.62l-2.948 3.44-1.443-1.444L0 17.029l2.97 2.97 4.354-5.078zM23.324 14.92l-1.519-1.301-2.948 3.44-1.443-1.444L16 17.029l2.97 2.97 4.354-5.078z" fill="#394E60"/></g></svg>