<?xml version="1.0" encoding="UTF-8" standalone="no"?>
<svg width="24px" height="20px" viewBox="0 0 24 20" version="1.1" xmlns="http://www.w3.org/2000/svg" xmlns:xlink="http://www.w3.org/1999/xlink">
    
     
    <defs></defs>
    <g id="Page-1" stroke="none" stroke-width="1" fill="none" fill-rule="evenodd">
        <g id="Icons" transform="translate(-349.000000, -556.000000)">
            <g id="icon-visual" transform="translate(349.000000, 556.000000)">
                <path d="M13,9 L13,6 L11,6 L11,9 L2,9 L2,13 L4,13 L4,11 L11,11 L11,13 L13,13 L13,11 L20,11 L20,13 L22,13 L22,9 L13,9 Z" id="Fill-68" fill="#394E60"></path>
                <path d="M17,2.5 L12,0 L7,2.5 L12,5 L17,2.5 Z" id="Fill-69" fill="#394E60"></path>
                <path class="svg-theme-fill" d="M18,20 L24,20 L24,15 L18,15 L18,20 Z M9,20 L15,20 L15,15 L9,15 L9,20 Z M0,20 L6,20 L6,15 L0,15 L0,20 Z" id="Fill-70" fill="#6397CD"></path>
            </g>
        </g>
    </g>
</svg>
