<?xml version="1.0" encoding="UTF-8" standalone="no"?>
<svg width="24px" height="20px" viewBox="0 0 24 20" version="1.1" xmlns="http://www.w3.org/2000/svg" xmlns:xlink="http://www.w3.org/1999/xlink">
    
     
    <defs></defs>
    <g id="Page-1" stroke="none" stroke-width="1" fill="none" fill-rule="evenodd">
        <g id="Icons" transform="translate(-453.000000, -368.000000)">
            <g id="icon-may" transform="translate(453.000000, 368.000000)">
                <path d="M18,6 C18,9.314 15.314,12 12,12 C8.686,12 6,9.314 6,6 C6,2.686 8.686,0 12,0 C15.314,0 18,2.686 18,6" id="Fill-1" class="svg-theme-fill" fill="#FB9050"></path>
                <path d="M4,18 C2.897,18 2,17.103 2,16 C2,14.897 2.897,14 4,14 C5.103,14 6,14.897 6,16 C6,17.103 5.103,18 4,18 M4,12 C1.794,12 0,13.794 0,16 C0,18.206 1.794,20 4,20 C6.206,20 8,18.206 8,16 C8,13.794 6.206,12 4,12" id="Fill-3" fill="#394E60"></path>
                <path d="M20,18 C18.897,18 18,17.103 18,16 C18,14.897 18.897,14 20,14 C21.103,14 22,14.897 22,16 C22,17.103 21.103,18 20,18 M20,12 C17.794,12 16,13.794 16,16 C16,18.206 17.794,20 20,20 C22.206,20 24,18.206 24,16 C24,13.794 22.206,12 20,12" id="Fill-5" fill="#394E60"></path>
                <path d="M12,4 C10.8966667,4 10,4.89666667 10,6 C10,7.10333333 10.8966667,8 12,8 C13.1033333,8 14,7.10333333 14,6 C14,4.89666667 13.1033333,4 12,4" id="Fill-7" fill="#FFFFFF"></path>
            </g>
        </g>
    </g>
</svg>
